<svg width="19" height="24" viewBox="0 0 19 24" fill="none" xmlns="http://www.w3.org/2000/svg">
<path d="M16.3862 13.824V9.69962C16.3862 5.99963 14.2012 2.88277 11.2412 1.9454C10.9482 1.09661 10.2322 0.498535 9.38623 0.498535C8.54023 0.498535 7.82423 1.09661 7.53123 1.9454C4.57123 2.88392 2.38623 5.99963 2.38623 9.69962V13.824L0.679231 15.7873C0.586189 15.8939 0.512401 16.0206 0.462116 16.1602C0.411831 16.2997 0.386041 16.4494 0.386232 16.6004V18.9007C0.386232 19.2057 0.491588 19.4983 0.679125 19.714C0.866661 19.9297 1.12102 20.0508 1.38623 20.0508H17.3862C17.6514 20.0508 17.9058 19.9297 18.0933 19.714C18.2809 19.4983 18.3862 19.2057 18.3862 18.9007V16.6004C18.3864 16.4494 18.3606 16.2997 18.3103 16.1602C18.2601 16.0206 18.1863 15.8939 18.0932 15.7873L16.3862 13.824ZM16.3862 17.7506H2.38623V17.0766L4.09323 15.1133C4.18627 15.0067 4.26006 14.8799 4.31035 14.7404C4.36063 14.6008 4.38642 14.4512 4.38623 14.3002V9.69962C4.38623 6.52869 6.62923 3.94894 9.38623 3.94894C12.1432 3.94894 14.3862 6.52869 14.3862 9.69962V14.3002C14.3862 14.6061 14.4912 14.8982 14.6792 15.1133L16.3862 17.0766V17.7506ZM9.38623 23.5012C10.0055 23.5021 10.6097 23.2811 11.1147 22.8688C11.6198 22.4566 12.0006 21.8736 12.2042 21.201H6.56823C6.77189 21.8736 7.15271 22.4566 7.65774 22.8688C8.16277 23.2811 8.76693 23.5021 9.38623 23.5012Z" fill="black"/>
</svg>
